<?xml version="1.0" encoding="utf-8"?>
<!-- Svg Vector Icons : http://www.onlinewebfonts.com/icon -->
<!DOCTYPE svg PUBLIC "-//W3C//DTD SVG 1.1//EN" "http://www.w3.org/Graphics/SVG/1.1/DTD/svg11.dtd">
<svg version="1.1" xmlns="http://www.w3.org/2000/svg" xmlns:xlink="http://www.w3.org/1999/xlink" x="0px" y="0px" viewBox="0 0 256 256" enable-background="new 0 0 256 256" xml:space="preserve">
<metadata> Svg Vector Icons : http://www.onlinewebfonts.com/icon </metadata>
<g><g><g><path stroke-width="8" fill-opacity="0" stroke="#000000"  d="M132,29c-1,0.5-3,1.9-4.5,3.1c-6.5,5.2-11.4,13.2-13.3,21.4l-1,4.5H84.8H56.3l-1.1,1.2l-1.1,1.2l-0.1,13l-0.1,13l-21.9,21.9L10,130.4v5.1l0,5.1l7.3,7.6l7.3,7.5l-2,3.4c-2.2,3.6-2.6,5.7-1.2,7.1c0.4,0.4,9.6,5.9,20.3,12.1l19.5,11.2v17.2c0,17.9,0.2,19.7,1.9,20.6c1,0.6,171.8,0.7,173.5,0.2c0.6-0.1,1.2-0.7,1.5-1.2c0.4-0.6,0.5-18.8,0.5-62.3v-61.4h2.4c1.8,0,2.8-0.3,3.7-1l1.2-0.9V80.2V60l-1.2-0.9c-1.2-1-1.6-1-29.5-1H187l-0.6-2.9c-0.8-4.3-1.8-7.1-4.1-11.6c-1.8-3.4-3-5-6.6-8.6c-2.9-2.9-5.3-4.9-6.9-5.6c-4.2-2-4.1-2.1-11.7,12c-3.6,6.7-6.7,12.1-6.8,12.1c-0.1,0-3.1-5.3-6.7-11.7c-3.5-6.4-6.7-12-7.1-12.4C135.7,28.2,134,28.1,132,29z M138.7,47.8c3.7,6.8,5,9.6,4.5,9.7c-0.4,0.1-2.1-0.6-3.8-1.4c-2.9-1.4-3.4-1.5-7.8-1.5c-4.1,0-4.9,0.1-7.2,1.2c-1.4,0.7-2.6,1.2-2.6,1.1c-0.4-0.4,1.5-6,3.1-9.1c1.8-3.4,7-9.7,8-9.7C133.4,38.2,135.9,42.6,138.7,47.8z M170.8,41.4c3.1,3.3,5.9,7.9,7.1,12.1c1.3,4.6,2.2,4.2-10.1,4.2c-6,0-10.9-0.1-10.9-0.3c0-0.6,10.3-19.1,10.6-19.1C167.7,38.2,169.2,39.6,170.8,41.4z M74.7,65.8c0,0.4-12.7,13-13.1,13c-0.3,0-0.4-11.6,0-12.6c0.2-0.7,0.9-0.8,6.7-0.8C71.8,65.5,74.7,65.6,74.7,65.8z M114,66.9c-0.5,0.8-1.2,1.4-1.5,1.3c-0.3-0.1-1.9-0.3-3.5-0.4c-3.6-0.3-7.9,0.8-11,2.8L95.7,72l-6-2.4c-11.3-4.6-12.2-4.1,7.8-4.1h17.5L114,66.9z M135.2,80v14.5h-6c-3.3,0-6-0.1-6-0.2c0-0.1,0.3-1,0.7-1.9c2.5-6,1.4-13.1-2.8-18l-1.5-1.8l1-1.8c0.5-1,1.4-2.6,2-3.6l1.1-1.7h5.8h5.8V80L135.2,80z M157.3,80v14.5h-7.4h-7.3l0-14.5l0-14.5h7.3h7.3L157.3,80L157.3,80z M238.6,80.3v14.9l-2.8-0.3c-1.6-0.1-18.2-0.3-36.9-0.3h-34.1V80l0-14.5h36.9h36.9L238.6,80.3L238.6,80.3z M83.4,75.2c2.7,1,4.9,2,5,2.1c0.1,0.1-3.2,0.2-7.3,0.2h-7.6l2-2.1c1.1-1.2,2.3-2.1,2.5-2.1C78.4,73.3,80.8,74.1,83.4,75.2z M112.4,76.6c1.1,0.5,2.5,1.6,3.1,2.3c1.4,1.8,2.8,6.2,2.3,7.4c-0.4,0.7-0.7,0.3-2.6-2.7c-2.6-4.4-3.1-4.9-7-6.6c-1.7-0.7-2.9-1.4-2.7-1.6C106.1,74.9,110.3,75.6,112.4,76.6z M91.5,85.3h16.3l2.6,4.4c2.9,4.8,2.9,5.3,0.1,6c-1,0.3-1.3,0.1-1.9-1c-1.8-3.3-5.4-5.4-9.3-5.4c-9.9,0-14.6,12.4-7.1,18.8c5.3,4.5,13.9,2.8,16.7-3.4c0.4-0.9,0.9-1.4,1.6-1.4c0.6,0,2.1-0.4,3.4-0.9c1.3-0.6,2.6-0.9,3-0.7c0.3,0.1,2.2,3,4.1,6.5c3,5.3,3.6,6.5,3.1,7.3c-0.4,0.9-21.9,38.7-37.3,65.3L80.5,192l-3.1-1.7c-10.5-5.8-47.9-27.6-48-27.9c0-0.2,6.6-11.8,14.7-25.9c29.2-50.8,29.7-51.7,30.4-51.4C74.9,85.2,82.6,85.3,91.5,85.3z M63.9,87.5c-0.1,0.2-3.4,5.9-7.3,12.6c-10.5,18.3-27.8,48.2-28,48.5c-0.2,0.3-13.1-12.6-13-13c0.1-0.4,48-48.4,48.3-48.4C64,87.2,64,87.3,63.9,87.5z M98.9,101.3c2.4,1.2,2.4,1.2,1.6,1.6c-1.8,1.1-4.2,0-4.2-1.9c0-0.5,0.1-0.8,0.4-0.7C96.9,100.3,97.9,100.7,98.9,101.3z M135.2,161.3v58.9H102H68.7l0-12.9c0-9.3,0.2-12.9,0.6-12.9c0.3,0,2.8,1.4,5.6,3c5.7,3.3,6.7,3.7,8.3,3c0.7-0.3,5.5-8.2,15.1-24.7c25.1-43.2,34.6-60.1,34.6-61.1c0-0.8-2.4-5.5-5.6-10.8l-0.9-1.5h4.4h4.4L135.2,161.3L135.2,161.3z M157.3,161.3v58.9H150h-7.3v-58.9v-58.9h7.3h7.3V161.3z M231.2,161.3v58.9H198h-33.2v-58.9v-58.9H198h33.2V161.3z"/><path stroke-width="8" fill-opacity="0" stroke="#000000"  d="M78,113.7c-1.2,1.1-4.7,7-4.3,7.3c0.1,0.1,4.8,2.8,10.3,6l10.2,5.8l0.8-1.4c0.5-0.7,0.8-1.5,0.8-1.7s-1.9-1.4-4.2-2.8c-4-2.4-4.2-2.5-3.5-3.5c1-1.6,2.4-1.5,6,0.6c1.8,1.1,3.5,1.9,3.6,1.9c0.1,0,0.6-0.6,1.2-1.5l1-1.5l-2.6-1.5c-4.2-2.5-5.7-3-7.3-2.8c-1.1,0.2-1.5,0.1-1.5-0.4c0-1.9-5.5-5.8-8.2-5.8C79.8,112.6,78.8,113.1,78,113.7z M83.7,118c2,1.4,2.4,2.6,1.5,4c-0.6,0.9-0.7,0.8-3.7-0.9l-3-1.8l0.7-1.3C80,116.4,81.3,116.4,83.7,118z"/><path stroke-width="8" fill-opacity="0" stroke="#000000"  d="M72,123.3c-1.5,2-4.8,8.3-4.4,8.6c0.7,0.6,20,11.6,20.4,11.6c0.2,0,0.8-0.9,1.3-2c0.6-1.1,1.7-3,2.4-4.3l1.4-2.4l-1.4-0.7c-1.7-0.9-1.5-1-3.4,2.3l-1.4,2.5l-3.1-1.8l-3.1-1.8L82,133l1.3-2.1l-1.2-0.8c-0.7-0.5-1.4-0.8-1.6-0.8c-0.2,0-0.8,0.9-1.3,2.1s-1.2,2.1-1.3,2.1c-0.2,0-1.6-0.7-3.1-1.6l-2.8-1.7l1.6-2.5c0.9-1.4,1.6-2.7,1.6-2.9s-0.6-0.7-1.3-1.1C72.8,123,72.3,123,72,123.3z"/><path stroke-width="8" fill-opacity="0" stroke="#000000"  d="M63.7,137.7c-2.1,3.8-2.3,4.2-1.6,4.7c0.4,0.3,4.6,2.8,9.3,5.5c4.7,2.7,9,5.3,9.6,5.6c1,0.6,1.1,0.6,1.9-1.1l0.9-1.8l-4-2.2c-2.2-1.2-4.1-2.4-4.2-2.4c-0.1,0,0.4-1.2,1-2.4l1.2-2.3l-1.5-0.7l-1.5-0.7l-1.3,2l-1.2,2l-2.6-1.4c-1.4-0.8-2.8-1.6-3-1.8c-0.2-0.2,0.2-1.6,1-3.1l1.4-2.8l-1.5-0.7l-1.6-0.7L63.7,137.7z"/><path stroke-width="8" fill-opacity="0" stroke="#000000"  d="M58,147.5c-1.3,2.2-2.4,4.2-2.4,4.4c0,0.3,4.5,3.1,10.1,6.4l10.2,6l1-1.2c0.6-0.7,1.1-1.5,1.1-1.7c0-0.3-1.9-1.5-4.2-2.8c-2.3-1.3-4.2-2.4-4.2-2.7c0-0.2,0.5-1.2,1.2-2.2l1.2-1.8l-1.5-0.9l-1.5-0.9l-1.1,2.1c-0.6,1.2-1.2,2.1-1.3,2.1c-0.5,0-6.2-3.3-6.2-3.6c0-0.1,0.6-1.3,1.4-2.5c0.8-1.2,1.4-2.4,1.4-2.6s-0.6-0.7-1.4-1.1l-1.4-0.8L58,147.5z"/><path stroke-width="8" fill-opacity="0" stroke="#000000"  d="M53,157.1c-2.9,2.4-3.6,5.3-2,7.9c1.3,2.1,13.3,9,16.3,9.3c2,0.2,2.3,0.1,3.8-1.5c2.9-3.1,2.6-6.7-0.8-8.9c-5.6-3.7-12.7-7.7-14.1-7.9C54.8,155.9,54.2,156.1,53,157.1z M61.2,162.8c8.3,4.8,9.4,5.8,7.8,7.4c-0.9,0.9-1.7,0.6-7.7-2.8c-5.7-3.2-7.9-4.8-7.9-5.5c0-0.5,1.7-2.2,2.2-2.2C55.7,159.7,58.3,161.1,61.2,162.8z"/></g></g></g>
</svg>